<svg width="96" height="96" xmlns="http://www.w3.org/2000/svg" xmlns:xlink="http://www.w3.org/1999/xlink" overflow="hidden"><defs><clipPath id="clip0"><rect x="716" y="-464" width="96" height="96"/></clipPath></defs><g clip-path="url(#clip0)" transform="translate(-716 464)"><path d="M800-440 780.566-440 774.566-450 753.434-450 747.434-440 728-440C725.24-439.997 723.003-437.76 723-435L723-387C723.003-384.24 725.24-382.003 728-382L800-382C802.76-382.003 804.997-384.24 805-387L805-435C804.997-437.76 802.76-439.997 800-440ZM754.566-448 773.434-448 778.234-440 749.766-440ZM800-438C801.657-438 803-436.657 803-435L803-387C803-385.343 801.657-384 800-384L728-384C726.343-384 725-385.343 725-387L725-435C725-436.657 726.343-438 728-438Z" fill="#FFFFFF"/><path d="M731-423 744-423 744-432 731-432ZM733-430 742-430 742-425 733-425Z" fill="#FFFFFF"/><path d="M764-427C754.059-427 746-418.941 746-409 746-399.059 754.059-391 764-391 773.941-391 782-399.059 782-409 781.988-418.936 773.936-426.988 764-427ZM764-393C755.163-393 748-400.163 748-409 748-417.837 755.163-425 764-425 772.837-425 780-417.837 780-409 779.99-400.168 772.832-393.01 764-393Z" fill="#FFFFFF"/><path d="M764-421C757.373-421 752-415.627 752-409 752-402.373 757.373-397 764-397 770.627-397 776-402.373 776-409 775.993-415.624 770.624-420.993 764-421ZM764-399C758.477-399 754-403.477 754-409 754-414.523 758.477-419 764-419 769.523-419 774-414.523 774-409 773.994-403.48 769.52-399.006 764-399Z" fill="#FFFFFF"/></g></svg>