<svg width="96" height="96" xmlns="http://www.w3.org/2000/svg" xmlns:xlink="http://www.w3.org/1999/xlink" overflow="hidden"><defs><clipPath id="clip0"><rect x="496" y="-416" width="96" height="96"/></clipPath></defs><g clip-path="url(#clip0)" transform="translate(-496 416)"><path d="M570.5-377.589C571.209-378.822 571.779-380.13 572.2-381.489L576.6-383.689 576.6-388.689 572.2-390.889C571.832-392.251 571.295-393.561 570.6-394.789L572.2-399.489 568.6-403.089 563.9-401.489C562.673-402.188 561.362-402.729 560-403.1L557.8-407.5 552.8-407.5 550.6-403.1C549.238-402.733 547.928-402.195 546.7-401.5L542-403.1 538.4-399.5 540-394.8C539.305-393.572 538.768-392.262 538.4-390.9L534-388.7 534-383.7 538.4-381.5C538.768-380.138 539.305-378.828 540-377.6L538.4-372.9 541.9-369.4 546.6-371C547.828-370.305 549.138-369.768 550.5-369.4L552.7-365 557.7-365 559.9-369.4C561.262-369.768 562.572-370.305 563.8-371L568.5-369.4 572.1-372.9ZM568.606-376.945 569.8-373.44 567.985-371.675 564.445-372.881 563.581-373.175 562.792-372.715C561.709-372.103 560.553-371.631 559.351-371.31L558.505-371.068 558.111-370.281 556.464-366.981 553.939-366.981 552.292-370.281 551.898-371.068 551.052-371.31C549.85-371.631 548.693-372.103 547.61-372.715L546.822-373.175 545.958-372.881 542.436-371.681 540.696-373.421 541.896-376.944 542.19-377.808 541.73-378.596C541.119-379.68 540.649-380.837 540.33-382.039L540.088-382.885 539.302-383.278 536-384.927 536-387.456 539.3-389.1 540.086-389.494 540.328-390.34C540.647-391.542 541.117-392.698 541.728-393.782L542.188-394.571 541.894-395.434 540.694-398.958 542.534-400.798 546.056-399.598 546.92-399.298 547.708-399.759C548.792-400.369 549.948-400.84 551.15-401.159L552-401.415 552.394-402.202 554.041-405.502 556.569-405.502 558.216-402.202 558.61-401.415 559.455-401.173C560.657-400.854 561.813-400.384 562.897-399.773L563.686-399.312 564.55-399.612 568.071-400.812 569.911-398.972 568.711-395.448 568.417-394.585 568.877-393.796C569.489-392.713 569.961-391.556 570.282-390.354L570.523-389.508 571.31-389.114 574.61-387.466 574.61-384.937 571.31-383.289 570.545-382.906 570.293-382.088C569.917-380.873 569.408-379.703 568.776-378.6L568.316-377.812Z" fill="#FFFFFF"/><path d="M511.4-352.382 511.4-347.382 515.8-345.182C516.168-343.82 516.705-342.51 517.4-341.282L515.9-336.582 519.4-333.082 524.1-334.582C525.328-333.887 526.638-333.35 528-332.982L530.2-328.582 535.2-328.582 537.4-332.982C538.762-333.35 540.072-333.887 541.3-334.582L546-332.982 549.5-336.582 548-341.182C548.695-342.41 549.232-343.72 549.6-345.082L554-347.282 554-352.282 549.6-354.482C549.232-355.844 548.695-357.154 548-358.382L549.6-363.082 546-366.682 541.3-365.082C540.064-365.76 538.756-366.296 537.4-366.682L535.2-371.082 530.2-371.082 528-366.682C526.638-366.314 525.328-365.777 524.1-365.082L519.4-366.682 515.9-363.182 517.4-358.482C516.722-357.246 516.186-355.938 515.8-354.582ZM517.46-353.182 517.712-354C518.056-355.208 518.531-356.376 519.128-357.481L519.576-358.25 519.305-359.097 518.176-362.638 519.934-364.397 523.456-363.197 524.32-362.902 525.108-363.362C526.191-363.974 527.348-364.447 528.55-364.767L529.4-365 529.794-365.787 531.441-369.087 533.969-369.087 535.616-365.787 535.999-365.021 536.817-364.77C538.025-364.425 539.192-363.95 540.297-363.353L541.086-362.893 541.95-363.188 545.471-364.388 547.311-362.547 546.111-359.024 545.817-358.161 546.277-357.372C546.889-356.288 547.361-355.132 547.682-353.929L547.923-353.084 548.71-352.69 552-351.046 552-348.517 548.7-346.869 547.913-346.475 547.672-345.63C547.351-344.428 546.879-343.271 546.267-342.187L545.815-341.412 546.093-340.559 547.219-337.106 545.45-335.278 541.95-336.471 541.086-336.765 540.297-336.305C539.213-335.692 538.055-335.22 536.852-334.9L536.006-334.658 535.613-333.871 533.966-330.571 531.438-330.571 529.791-333.871 529.397-334.658 528.551-334.9C527.349-335.22 526.192-335.693 525.109-336.305L524.341-336.753 523.493-336.483 519.954-335.353 518.177-337.13 519.306-340.671 519.577-341.518 519.129-342.287C518.517-343.37 518.045-344.527 517.724-345.729L517.482-346.575 516.696-346.969 513.396-348.617 513.396-351.146 516.696-352.794Z" fill="#FFFFFF"/><path d="M555.3-393.694C551.158-393.694 547.8-390.336 547.8-386.194 547.8-382.052 551.158-378.694 555.3-378.694 559.442-378.694 562.8-382.052 562.8-386.194 562.769-390.323 559.429-393.663 555.3-393.694ZM555.3-380.694C552.264-380.698 549.804-383.158 549.8-386.194 549.84-389.215 552.279-391.654 555.3-391.694 558.336-391.69 560.796-389.23 560.8-386.194 560.762-383.172 558.322-380.73 555.3-380.69Z" fill="#FFFFFF"/><path d="M532.7-342.279C536.842-342.279 540.2-345.637 540.2-349.779 540.2-353.921 536.842-357.279 532.7-357.279 528.558-357.279 525.2-353.921 525.2-349.779 525.195-345.642 528.545-342.284 532.682-342.279 532.688-342.279 532.694-342.279 532.7-342.279ZM532.7-355.284C535.738-355.284 538.2-352.822 538.2-349.784 538.2-346.746 535.738-344.284 532.7-344.284 529.662-344.284 527.2-346.746 527.2-349.784 527.204-352.82 529.664-355.28 532.7-355.284Z" fill="#FFFFFF"/></g></svg>