<svg width="96" height="96" xmlns="http://www.w3.org/2000/svg" xmlns:xlink="http://www.w3.org/1999/xlink" overflow="hidden"><defs><clipPath id="clip0"><rect x="592" y="312" width="96" height="96"/></clipPath></defs><g clip-path="url(#clip0)" transform="translate(-592 -312)"><path d="M672 346 672 325 665.3 331.7C658.6 325.7 649.7 322 640 322 619 322 602 339 602 360 602 381 619 398 640 398 650.5 398 660 393.7 666.9 386.9L658.4 378.4C653.7 383.1 647.2 386 640 386 625.7 386 614 374.3 614 360 614 345.7 625.7 334 640 334 646.4 334 652.3 336.3 656.8 340.2L651 346 672 346Z" fill="#FFFFFF"/></g></svg>